<svg width="410" height="404" viewBox="0 0 410 404" fill="none" xmlns="http://www.w3.org/2000/svg">



<path d="M 106.075 137.644 C 124.877 137.711 141.347 140.577 153.337 145.646 C 165.356 151.186 176.051 160.413 183.157 171.412 C 189.828 182.461 193.824 195.345 193.824 207.557 C 193.824 218.99 190.132 231.073 184.165 241.105 C 180.878 246.282 176.501 251.286 171.508 255.623 L 171.904 255.819 L 171.816 255.889 L 171.499 255.719 L 171.459 255.752 C 179.401 260.384 186.558 266.541 191.849 273.23 C 200.175 284.694 205.241 299.417 205.241 314.656 C 205.241 326.789 202.232 339.24 197.237 349.739 C 192.003 360.08 184.665 369.155 177.035 375.151 C 169.303 380.753 159.02 385.457 147.881 388.38 C 136.862 391.114 123.019 392.58 107.508 392.609 L 8.008 392.609 L 8.008 137.644 L 9.929 137.644 L 106.075 137.644 Z M 58.42 184.68 L 58.42 236.703 L 99.79 236.703 C 113.193 236.724 121.675 236.029 126.686 234.406 C 133.366 232.605 136.918 230.511 139.599 226.33 C 142.804 222.478 143.894 218.215 143.894 211.255 C 143.894 204.594 142.992 200.326 139.853 195.882 C 137.408 191.3 134.529 189.02 129.059 187.581 C 123.123 185.596 112.438 184.66 95.933 184.68 L 58.42 184.68 Z M 58.42 283.739 L 58.42 345.574 L 107.508 345.574 C 117.338 345.583 123.528 345.287 126.963 344.614 C 133.403 343.519 137.768 342.061 141.572 339.532 C 145.295 337.474 147.744 334.81 150.142 330.051 C 152.769 325.653 153.703 321.126 153.703 314.656 C 153.703 307.124 152.576 302.279 148.78 297.383 C 145.492 292.09 141.565 289.118 134.978 287.245 C 127.999 284.826 117.811 283.711 103.332 283.739 L 58.42 283.739 Z M 280.96 184.68 L 280.96 238.473 L 391.599 238.473 L 391.599 285.509 L 280.96 285.509 L 280.96 392.609 L 230.548 392.609 L 230.548 137.644 L 408.806 137.644 L 408.806 184.68 L 280.96 184.68 Z" style="fill: rgb(0, 128, 128); transform-box: fill-box; transform-origin: 50% 50%;"></path>

</svg>
